# xmcd
#
# Track frame offsets:
#	182
#	10605
#	23142
#	36305
#	48180
#	64400
#	74720
#	86930
#	96380
#	108602
#
# Disc length: 1552 seconds
#
# Revision: 0
# Processed by: cddbd v1.4PL0 Copyright (c) Steve Scherf et al.
# Submitted via: EasyCDDAExtractor 4.6.0.1
#
DISCID=8d060e0a
DTITLE=Dolly Parton - I Believe
DYEAR=1997
DGENRE=Gospel
TTITLE0=I Believe
TTITLE1=Heaven's Just A Prayer Away
TTITLE2=Golden Streets Of Glory
TTITLE3=Wings Of A Dove
TTITLE4=How Great Thou Art
TTITLE5=Yes I See God
TTITLE6=The Master's Hand
TTITLE7=Lord Hold My Hand
TTITLE8=I'll Keep Climbing
TTITLE9=Book Of Life
EXTD=
EXTT0=
EXTT1=
EXTT2=
EXTT3=
EXTT4=
EXTT5=
EXTT6=
EXTT7=
EXTT8=
EXTT9=
PLAYORDER=
